<svg width="16" height="22" viewBox="0 0 16 22" fill="none" xmlns="http://www.w3.org/2000/svg">
<path d="M8 0C5.87901 0.0025995 3.84557 0.914027 2.3458 2.53433C0.846033 4.15463 0.00240612 6.35149 0 8.64294C0 16.0386 7.27273 21.6241 7.58273 21.8578C7.70501 21.9504 7.8507 22 8 22C8.1493 22 8.29499 21.9504 8.41727 21.8578C8.72727 21.6241 16 16.0386 16 8.64294C15.9976 6.35149 15.154 4.15463 13.6542 2.53433C12.1544 0.914027 10.121 0.0025995 8 0ZM8 5.50005C8.57536 5.50005 9.13781 5.68438 9.6162 6.02973C10.0946 6.37507 10.4675 6.86592 10.6876 7.44021C10.9078 8.0145 10.9654 8.64643 10.8532 9.25609C10.7409 9.86575 10.4639 10.4258 10.057 10.8653C9.65019 11.3048 9.13184 11.6042 8.56754 11.7254C8.00323 11.8467 7.41831 11.7845 6.88674 11.5466C6.35517 11.3087 5.90083 10.9059 5.58118 10.389C5.26152 9.87219 5.09091 9.26455 5.09091 8.64294C5.09091 7.8094 5.3974 7.00999 5.94296 6.42059C6.48852 5.83118 7.22846 5.50005 8 5.50005Z" fill="#CF1F27"/>
</svg>
