<svg width="19" height="22" viewBox="0 0 19 22" fill="none" xmlns="http://www.w3.org/2000/svg">
<path d="M9.0652 8.50373V21M9.0652 21L12.0652 18M9.0652 21L6.0652 18M5.0652 4.03973C5.8135 4.14673 6.5067 4.49421 7.0402 5.02973M14.5652 11.0037C16.0842 11.0037 17.0652 9.77273 17.0652 8.25373C17.0651 7.65234 16.868 7.06756 16.5039 6.58893C16.1397 6.11031 15.6288 5.76424 15.0492 5.60373C14.96 4.48218 14.4952 3.42349 13.7299 2.59882C12.9646 1.77414 11.9435 1.23169 10.8317 1.05915C9.71993 0.886616 8.58246 1.09408 7.60319 1.64802C6.62392 2.20195 5.8601 3.06996 5.4352 4.11173C4.54063 3.86375 3.58418 3.9813 2.77628 4.43851C1.96837 4.89572 1.37518 5.65515 1.1272 6.54972C0.879224 7.4443 0.996772 8.40074 1.45399 9.20865C1.9112 10.0166 2.67063 10.6097 3.5652 10.8577" stroke="#CF1F27" stroke-width="2" stroke-linecap="round" stroke-linejoin="round"/>
</svg>
